HIERARCHY
ROOT Hips
{
	OFFSET 0.00000 0.00000 0.00000
	CHANNELS 6 Xposition Yposition Zposition Zrotation Yrotation Xrotation 
	JOINT LHipJoint
	{
		OFFSET 0 0 0
		CHANNELS 3 Zrotation Yrotation Xrotation
		JOINT LeftUpLeg
		{
			OFFSET 1.28858 -1.83292 1.03970
			CHANNELS 3 Zrotation Yrotation Xrotation
			JOINT LeftLeg
			{
				OFFSET 2.47846 -6.80952 0.00000
				CHANNELS 3 Zrotation Yrotation Xrotation
				JOINT LeftFoot
				{
					OFFSET 2.75274 -7.56311 0.00000
					CHANNELS 3 Zrotation Yrotation Xrotation
					JOINT LeftToeBase
					{
						OFFSET 0.12848 -0.35301 1.68223
						CHANNELS 3 Zrotation Yrotation Xrotation
						End Site
						{
							OFFSET 0.00000 -0.00000 0.87311
						}
					}
				}
			}
		}
	}
	JOINT RHipJoint
	{
		OFFSET 0 0 0
		CHANNELS 3 Zrotation Yrotation Xrotation
		JOINT RightUpLeg
		{
			OFFSET -1.31183 -1.83292 1.03970
			CHANNELS 3 Zrotation Yrotation Xrotation
			JOINT RightLeg
			{
				OFFSET -2.44740 -6.72417 0.00000
				CHANNELS 3 Zrotation Yrotation Xrotation
				JOINT RightFoot
				{
					OFFSET -2.67343 -7.34519 0.00000
					CHANNELS 3 Zrotation Yrotation Xrotation
					JOINT RightToeBase
					{
						OFFSET -0.16914 -0.46471 1.77626
						CHANNELS 3 Zrotation Yrotation Xrotation
						End Site
						{
							OFFSET -0.00000 -0.00000 0.92777
						}
					}
				}
			}
		}
	}
	JOINT LowerBack
	{
		OFFSET 0 0 0
		CHANNELS 3 Zrotation Yrotation Xrotation
		JOINT Spine
		{
			OFFSET 0.01249 2.14252 0.03842
			CHANNELS 3 Zrotation Yrotation Xrotation
			JOINT Spine1
			{
				OFFSET -0.02957 2.14199 -0.03751
				CHANNELS 3 Zrotation Yrotation Xrotation
				JOINT Neck
				{
					OFFSET 0 0 0
					CHANNELS 3 Zrotation Yrotation Xrotation
					JOINT Neck1
					{
						OFFSET -0.01678 1.65709 -0.05476
						CHANNELS 3 Zrotation Yrotation Xrotation
						JOINT Head
						{
							OFFSET 0.07912 1.58331 -0.11843
							CHANNELS 3 Zrotation Yrotation Xrotation
							End Site
							{
								OFFSET 0.03298 1.73940 -0.04271
							}
						}
					}
				}
				JOINT LeftShoulder
				{
					OFFSET 0 0 0
					CHANNELS 3 Zrotation Yrotation Xrotation
					JOINT LeftArm
					{
						OFFSET 3.39556 1.16496 0.08673
						CHANNELS 3 Zrotation Yrotation Xrotation
						JOINT LeftForeArm
						{
							OFFSET 5.23910 -0.00000 -0.00000
							CHANNELS 3 Zrotation Yrotation Xrotation
							JOINT LeftHand
							{
								OFFSET 3.31467 -0.00000 0.00000
								CHANNELS 3 Zrotation Yrotation Xrotation
								JOINT LeftFingerBase
								{
									OFFSET 0 0 0
									CHANNELS 3 Zrotation Yrotation Xrotation
									JOINT LeftHandIndex1
									{
										OFFSET 0.96590 -0.00000 0.00000
										CHANNELS 3 Zrotation Yrotation Xrotation
										End Site
										{
											OFFSET 0.77873 -0.00000 0.00000
										}
									}
								}
								JOINT LThumb
								{
									OFFSET 0 0 0
									CHANNELS 3 Zrotation Yrotation Xrotation
									End Site
									{
										OFFSET 0.79062 -0.00000 0.79062
									}
								}
							}
						}
					}
				}
				JOINT RightShoulder
				{
					OFFSET 0 0 0
					CHANNELS 3 Zrotation Yrotation Xrotation
					JOINT RightArm
					{
						OFFSET -3.27193 1.31331 0.33940
						CHANNELS 3 Zrotation Yrotation Xrotation
						JOINT RightForeArm
						{
							OFFSET -5.30252 -0.00000 0.00000
							CHANNELS 3 Zrotation Yrotation Xrotation
							JOINT RightHand
							{
								OFFSET -3.67875 -0.00000 0.00000
								CHANNELS 3 Zrotation Yrotation Xrotation
								JOINT RightFingerBase
								{
									OFFSET 0 0 0
									CHANNELS 3 Zrotation Yrotation Xrotation
									JOINT RightHandIndex1
									{
										OFFSET -0.59481 -0.00000 0.00000
										CHANNELS 3 Zrotation Yrotation Xrotation
										End Site
										{
											OFFSET -0.47955 -0.00000 0.00000
										}
									}
								}
								JOINT RThumb
								{
									OFFSET 0 0 0
									CHANNELS 3 Zrotation Yrotation Xrotation
									End Site
									{
										OFFSET -0.48687 -0.00000 0.48687
									}
								}
							}
						}
					}
				}
			}
		}
	}
}
MOTION
Frames: 14
Frame Time: 0.0333333
0.00 0.00 0.00 0 0 0 0 0 0 -21 0 0 0 0 0 0 0 0 0 0 0 0 0 0 21 0 0 0 0 0 0 0 0 0 0 0 0 0 0 0 0 0 0 0 0 0 0 -16 0 0 21 0 0 11 0 0 0 -8 0 0 0 0 0 0 0 0 0 0 0 0 0 0 0 0 0 0 0 0 8 0 0 0 0 0 0 0 0 0 0 0 0 0 0 0 0 0
0.00 0.00 0.00 -0.7269 30.4465 3.8403 0.0000 0.0000 0.0000 -15.7259 -1.3599 1.2520 0.2303 3.0887 8.5259 0.6166 -14.5772 -16.2096 2.3493 9.5585 27.5586 0.0000 0.0000 0.0000 11.4529 -9.1616 -10.8779 -0.6617 -5.2027 14.4875 -1.1347 -14.4616 -29.9496 -0.1280 -2.3063 6.3528 -0.9061 1.2207 -1.9517 -0.0724 1.6443 -2.1090 0.4486 0.8370 -1.0896 -2.8507 -6.2786 0.5472 5.1364 -8.5198 3.4215 1.9906 -4.2299 1.3492 -0.0000 -0.0000 0.0000 -82.4621 1.7797 42.6693 11.9854 -19.7827 -2.0973 -0.0000 0.0000 -12.7493 12.1360 -11.6615 -2.4888 -7.1250 0.0000 -0.0000 -10.4978 18.1728 6.8156 -0.0000 -0.0000 0.0000 84.4143 -10.7232 28.0295 -12.9220 21.1729 -2.4251 0.0000 0.0000 2.5944 -8.6097 -40.4235 5.6073 7.1250 -0.0000 -0.0000 37.1057 -67.1964 -20.9739
0.00 0.00 0.00 0.9785 36.7811 6.0141 0.0000 0.0000 0.0000 -15.8392 -2.8424 0.7968 0.1969 2.8575 7.8822 -0.2080 -17.8645 -10.5249 3.0021 10.6985 31.2695 0.0000 0.0000 0.0000 9.5556 -11.6742 -20.5920 -2.8861 -10.5084 30.6393 -1.3020 -13.6463 -30.3090 -0.2632 -3.3008 9.1173 -1.9281 1.5794 -0.0683 -0.7577 2.0899 -1.2632 0.2805 1.0630 -1.2962 -4.2093 -8.4722 2.1581 8.1218 -11.4036 0.1808 3.2846 -5.7329 0.4558 0.0000 -0.0000 0.0000 -80.4025 -1.1733 42.2659 11.0570 -18.3756 -1.7939 -0.0000 0.0000 -11.0627 12.9778 -11.1598 -2.5540 -7.1250 0.0000 -0.0000 -9.9253 18.6295 6.3302 0.0000 -0.0000 0.0000 86.3016 -11.8925 25.9247 -12.7835 20.9692 -2.3753 0.0000 0.0000 2.5954 -6.7889 -40.6590 4.4353 7.1250 -0.0000 -0.0000 39.3327 -66.8270 -22.0669
0.00 0.00 0.00 11.1009 45.1870 21.1314 0.0000 0.0000 0.0000 -12.0975 -6.3328 0.3574 0.2306 3.0908 8.5317 -0.5936 -21.0701 -9.6256 3.8324 11.9340 35.4988 0.0000 0.0000 0.0000 6.4866 -8.1413 -48.6134 -6.3523 -14.7613 46.3797 -2.8766 -14.4679 -39.5956 -0.3308 -3.6964 10.2241 -4.4305 0.8428 3.5566 -0.9351 0.9254 -0.0477 1.4720 0.5059 -2.0991 -6.5879 -10.8749 3.6495 12.5114 -14.1444 -8.0280 4.9795 -7.3117 -1.5665 -0.0000 -0.0000 0.0000 -76.7397 1.4484 29.5380 6.1457 -10.5050 -0.5655 -0.0000 0.0000 -1.1070 10.9504 -9.5528 -1.8391 -7.1250 0.0000 -0.0000 -11.4160 20.3401 6.8720 -0.0000 -0.0000 0.0000 83.4278 -4.6174 30.5899 -12.2832 20.2280 -2.1992 0.0000 0.0000 4.1005 -6.3088 -41.1430 4.1603 7.1250 -0.0000 -0.0000 40.5963 -67.0413 -23.0634
0.00 0.00 0.00 9.5532 41.6778 18.0721 0.0000 0.0000 0.0000 -6.7984 -3.1111 -1.2969 1.7230 8.2635 23.5174 -0.8166 -22.3622 -8.8148 1.6844 8.1752 23.2475 0.0000 0.0000 0.0000 12.8362 -4.4720 -46.2105 -8.1571 -16.2336 53.1268 -4.5221 -11.6071 -45.1080 -0.6504 -5.1587 14.3619 -3.9997 0.7479 3.0208 -0.6366 0.8471 -0.0593 1.5492 0.4577 -1.8036 -8.1471 -10.5796 0.9928 12.7941 -13.9335 -4.7132 4.9904 -7.0526 -0.0504 -0.0000 -0.0000 0.0000 -73.0982 7.7979 38.8066 8.0278 -13.5980 -0.9587 -0.0000 0.0000 -5.5030 11.9114 -14.2625 -2.9749 -7.1250 0.0000 -0.0000 -10.5919 15.5808 7.4886 -0.0000 -0.0000 0.0000 79.6150 -2.7714 36.4430 -18.2759 28.5090 -4.6802 0.0000 -0.0000 -3.3492 -9.3375 -40.0843 6.0438 7.1250 -0.0000 -0.0000 35.8210 -67.1536 -20.1365
0.00 0.00 0.00 7.6285 38.2226 15.0686 0.0000 0.0000 0.0000 -2.4281 -4.7221 -6.0045 5.1453 13.5456 41.4466 -0.3800 -12.0586 -1.1961 2.1606 9.1929 26.4006 0.0000 0.0000 0.0000 17.1035 -0.0423 -41.1337 -8.5133 -16.4841 54.3912 -5.1545 -9.9337 -46.8448 -0.4586 -4.3441 12.0468 -4.5774 0.1918 3.1183 -0.1800 0.0906 0.0600 2.3778 0.0827 -1.6946 -8.3005 -9.5988 -0.6717 12.6928 -12.7153 -2.2914 4.8660 -6.3494 0.8044 0.0000 0.0000 0.0000 -69.7113 13.4853 43.3497 7.5729 -12.8581 -0.8545 -0.0000 0.0000 -2.2105 20.8816 -19.5968 -7.2916 -7.1250 0.0000 -0.0000 -4.7980 9.1794 3.9855 0.0000 0.0000 0.0000 74.1370 5.5413 42.3054 -23.8253 34.9790 -7.6062 0.0000 -0.0000 -0.7489 -14.6934 -37.9547 9.1616 7.1250 -0.0000 -0.0000 26.9589 -67.0075 -14.7242
0.00 0.00 0.00 3.7842 33.5249 11.6949 0.0000 0.0000 0.0000 1.8185 -10.9744 -12.8842 10.1064 17.4693 59.8436 0.2062 0.4804 8.4183 0.1483 2.4819 6.8394 0.0000 0.0000 0.0000 23.1652 0.5599 -35.1448 -7.8115 -15.9788 51.8809 -5.4763 -5.2395 -46.2352 -0.4898 -4.4874 12.4522 -0.9051 -0.3425 3.0377 -0.0560 -0.4909 -0.2938 0.4731 -0.2353 -1.9969 -6.0729 -8.7483 -1.4997 9.9188 -11.6669 -0.3836 4.0428 -5.7905 1.1851 -0.0000 0.0000 0.0000 -65.4274 21.2541 41.2359 6.1956 -10.5881 -0.5747 -0.0000 -0.0000 2.5462 15.2781 -14.6721 -3.9578 -7.1250 0.0000 -0.0000 -8.3073 14.9043 5.9551 -0.0000 0.0000 0.0000 68.4089 20.4171 47.1326 -30.1681 41.0370 -11.5198 0.0000 -0.0000 -0.9282 -20.0279 -36.4865 12.2300 7.1250 -0.0000 -0.0000 18.9529 -67.2843 -10.3140
0.00 0.00 0.00 1.9259 20.5075 10.5591 0.0000 0.0000 0.0000 1.4023 -12.0986 -22.0163 15.7202 19.5551 77.3969 0.8144 -2.3705 18.0623 0.0645 1.6381 4.5064 0.0000 0.0000 0.0000 25.4308 0.2395 -25.1272 -5.4592 -13.8829 42.7705 -4.4689 2.4925 -39.5985 -0.4035 -4.0781 11.2965 1.6475 1.5894 2.6601 -0.2880 2.1728 -0.8624 -1.3173 1.0584 -2.3032 -4.9388 -7.4724 -2.6044 7.7492 -10.0264 1.9166 3.0794 -4.9322 1.7762 0.0000 0.0000 0.0000 -61.7497 30.3701 36.5651 4.0553 -6.9833 -0.2475 -0.0000 -0.0000 6.1434 7.7832 -8.2330 -1.1213 -7.1250 0.0000 -0.0000 -13.7520 21.7497 7.9024 0.0000 0.0000 0.0000 58.9631 42.8259 50.6390 -36.0666 45.5589 -15.5701 0.0000 0.0000 2.1421 -25.8389 -36.5547 16.0886 7.1250 -0.0000 -0.0000 11.6999 -69.1336 -6.7988
0.00 0.00 0.00 1.3470 3.8076 11.5994 0.0000 0.0000 0.0000 -0.9707 -15.5802 -33.5127 19.3450 19.9897 88.0847 0.4091 -1.5265 12.7338 1.6549 8.1070 23.0395 0.0000 0.0000 0.0000 23.1837 1.0451 -10.8124 -2.1410 -9.1537 26.2773 -1.7787 7.7951 -23.9084 -0.1495 -2.4912 6.8653 4.2857 5.0092 0.2636 -0.9713 6.7034 -0.5901 -3.3718 3.3406 -0.1486 -5.3242 -6.5151 -3.5115 6.4398 -8.7385 3.9940 2.7126 -4.2835 2.4801 -0.0000 0.0000 0.0000 -58.9238 39.5279 35.3908 2.9576 -5.1068 -0.1319 -0.0000 0.0000 -1.6529 8.2719 -5.2817 -0.7667 -7.1250 0.0000 -0.0000 -13.6664 24.6355 6.9152 -0.0000 0.0000 0.0000 37.1423 66.5418 42.1467 -39.8500 47.9808 -18.3277 0.0000 0.0000 8.8196 -26.6340 -33.0224 15.2858 7.1250 -0.0000 -0.0000 7.5053 -65.8557 -3.7883
0.00 0.00 0.00 0.6573 -4.8571 11.7977 0.0000 0.0000 0.0000 -0.6858 -19.4318 -38.6581 19.6260 19.9966 88.9064 0.2408 -2.3657 10.4510 2.8737 10.4878 30.5712 0.0000 0.0000 0.0000 22.0506 2.4405 -5.3159 -1.3854 -7.4473 21.0476 -0.5889 2.8985 -13.7971 -0.0884 -1.9176 5.2779 7.0509 6.7759 1.3245 -1.6939 9.1598 -0.7829 -5.6781 4.5601 -0.1750 -4.4407 -6.3441 -4.6165 4.9761 -8.4999 5.6801 2.0300 -4.1593 3.1018 0.0000 0.0000 0.0000 -56.4566 45.0489 35.9233 3.1549 -5.4452 -0.1501 -0.0000 0.0000 -5.8073 5.2567 -2.4518 -0.2255 -7.1250 0.0000 -0.0000 -16.2343 27.3891 7.2182 0.0000 0.0000 0.0000 8.3778 75.1996 20.1179 -40.9156 48.6031 -19.1232 0.0000 0.0000 10.1485 -27.8764 -30.3777 14.9753 7.1250 -0.0000 -0.0000 4.2479 -63.4807 -1.9060
0.00 0.00 0.00 0.3409 -11.1102 11.7804 0.0000 0.0000 0.0000 0.0492 -22.7424 -41.5194 19.0128 19.9766 87.1125 0.0691 -3.8391 7.8161 2.2925 9.4505 27.2150 0.0000 0.0000 0.0000 20.8034 1.1191 -4.7465 -1.4144 -7.5216 21.2701 -0.0873 -3.0615 -7.5654 -0.0876 -1.9094 5.2554 8.8332 8.0025 2.1232 -2.1005 10.8846 -0.3241 -7.0375 5.4731 0.5226 -3.9391 -5.9779 -5.2678 3.9892 -7.9663 6.0669 1.6213 -3.9055 3.2461 0.0000 -0.0000 0.0000 -55.5093 47.8889 35.8687 3.4881 -6.0157 -0.1833 -0.0000 0.0000 -8.9837 2.2538 -0.2810 -0.0111 -7.1250 0.0000 -0.0000 -18.8295 29.4076 7.5314 0.0000 -0.0000 0.0000 -28.7662 77.2222 -13.2261 -40.7081 48.4838 -18.9677 0.0000 0.0000 11.0762 -28.2689 -29.6875 14.9133 7.1250 -0.0000 -0.0000 3.3992 -62.8635 -1.4755
0.00 0.00 0.00 0.2021 -17.6509 12.1039 0.0000 0.0000 0.0000 1.6103 -25.0801 -44.6290 18.0424 19.9079 84.2680 -0.0397 -4.6646 4.9419 2.3533 9.5661 27.5828 0.0000 0.0000 0.0000 19.5217 -0.4414 -6.9458 -1.9937 -8.8530 25.3367 0.1856 -8.5234 -7.2066 -0.1868 -2.7840 7.6779 9.9961 9.1361 3.3262 -2.6035 12.5319 0.1059 -8.2152 6.3540 0.9780 -3.6989 -5.3131 -6.0018 3.1533 -6.9995 5.6183 1.3411 -3.4445 3.1346 0.0000 -0.0000 0.0000 -55.0228 50.3793 35.2625 3.8664 -6.6616 -0.2251 -0.0000 0.0000 -11.5696 0.7487 0.6906 0.0090 -7.1250 0.0000 -0.0000 -20.1449 30.2781 7.6715 0.0000 -0.0000 0.0000 -60.7849 74.6954 -42.9776 -41.0238 48.6649 -19.2044 0.0000 0.0000 10.6239 -28.2723 -28.9352 14.5855 7.1250 -0.0000 -0.0000 3.0266 -62.0719 -1.2572
0.00 0.00 0.00 1.8759 -26.7518 11.4811 0.0000 0.0000 0.0000 4.1260 -29.5268 -47.8643 15.7309 19.5573 77.4289 -0.0799 -5.1416 0.6344 1.5027 7.7427 21.9351 0.0000 0.0000 0.0000 16.6633 -5.5291 -10.8722 -2.8714 -10.4840 30.5586 0.4617 -15.9710 -17.2171 -0.7599 -5.5673 15.5338 9.7642 10.2817 5.3993 -4.0113 14.2247 0.8692 -9.7444 7.2973 1.3312 -2.7439 -4.4505 -8.2648 2.5624 -5.8458 6.2360 0.9896 -2.8516 3.6779 0.0000 0.0000 0.0000 -52.5367 53.4258 34.9485 4.4868 -7.7165 -0.3027 -0.0000 0.0000 -16.0729 -1.2540 1.9099 -0.0418 -7.1250 0.0000 -0.0000 -21.9101 31.3391 7.8331 0.0000 0.0000 0.0000 -87.6187 69.0436 -71.5953 -40.6836 48.4697 -18.9494 0.0000 0.0000 9.2154 -29.0169 -27.4447 14.3408 7.1250 -0.0000 -0.0000 1.4885 -60.6792 -0.5690
0.00 0.00 0.00 2.9414 -34.6143 11.8381 0.0000 0.0000 0.0000 7.5725 -29.9893 -50.0369 13.2270 18.8626 69.8290 0.0162 -4.5045 -3.7241 1.0984 6.6598 18.7114 0.0000 0.0000 0.0000 15.3685 -9.3831 -15.1122 -3.0014 -10.6974 31.2659 -0.1065 -13.8248 -20.8238 -0.2989 -3.5154 9.7171 9.2196 11.0387 6.2553 -5.1546 15.2735 0.9466 -10.7543 7.8669 1.3880 -1.2966 -3.2144 -10.2569 0.7666 -4.1907 6.7530 0.2033 -2.0663 4.1115 0.0000 -0.0000 0.0000 -50.5811 55.0658 33.8621 4.4487 -7.6518 -0.2977 -0.0000 0.0000 -15.2311 -3.3623 3.4298 -0.2014 -7.1250 0.0000 -0.0000 -23.8626 32.6389 7.8247 0.0000 -0.0000 0.0000 -106.6465 66.5939 -96.3157 -41.2990 48.8210 -19.4114 0.0000 0.0000 6.9000 -28.1474 -27.5315 13.8907 7.1250 -0.0000 -0.0000 2.5516 -60.5526 -0.9679
